<svg id="Calque_1" data-name="Calque 1" xmlns="http://www.w3.org/2000/svg" viewBox="0 0 471 580"><defs><style>.cls-1{fill:#df412c}.cls-2{fill:#b53b2f}.cls-3{fill:#993831}.cls-4{fill:#7f3533}.cls-5{fill:#5f3034}.cls-6{fill:#462d35}.cls-7{fill:#2b2937}.cls-8{fill:#122638}</style></defs><title>Plan de travail 1</title><path class="cls-1" d="M395.1 31.9l9.3.8s-8.2-1.4-9.3-.8z"/><path class="cls-1" d="M442.3 64.2l-2-5 6.4-5.7s-.7-5.7-2.3-5.7-1-2.3-4 0-5.3-5.3-3.7-5.7-2.3.7 7.7-1.7c-7.7-2.3-19.4 4.3-19.4 4.3l-1.7 3.7-4-3.3-3-.3-4-2.3-2-5.3-7.4-.3s-8.7-4.3-7.7-4.9l-9.7-.8-7.4-.2h-6.7l1.7-6.2h-8.4s-2.3-2.7-4-3.3-6-5-6-5l-7.4-1.5 3.7-2h9.7l9 4.2 10 6-10.6-13.9c.7.6 10.5 8.4 14.1 11.8-2.5-3-7.8-10.1-7.8-10.1h5.3l7.4 1.9-6-6.2S361.4 4.8 360 4.8s-28.7-3.1-28.7-3.1L309.6 6h-26.5l-15.3 1.7s-13.7 1-14.7 1.7-8 4-8 4l-1.7-6-16.3 7.4-9.1 3.6-5.4-3.4-10.4 5-7.4 1-6.4 3.3.3 3-9 1-5.7 3.3-4 3.7-6.7 1.7-6 8.4-.3 6-13 2.3s-2.7 3.3-3 4.7-2.7 7.4-2.7 7.4a20.8 20.8 0 0 0-1 6.7h310l2.3-4-3.3-2.7z"/><path class="cls-2" d="M129 85.2l-7.4 2.3c-2 .7-5 .3-7.7 2.3a10.8 10.8 0 0 0-4.3 6c-.3 1.7-3 6-4 6.4s-5.7 4.3-5.7 4.3-3.7 8.7-3.2 10-.1 4.3-.1 4.3-9.6 2-10.6 2.7a58.7 58.7 0 0 0-6.1 5c-1.7 1.7-5 7.7-5 7.7v4.8l-5.6-3.7-1.8 7.8H437l2.4-2.7-1.6-6.9s3.1-2.7 3.1-3.7-4-4.9-4-4.9h5.3l2.3-5-1.8-4.2-.8-3.8 9.1-10.4v-4l5.3 4.7v7l-.6 7.7h6.7l3.7-3.3v-5.3l-1.5-5.7-4.6-10.7-5.3-6.4-4.7-9-3.7-3 1-2.9H137.4c-.1 4-8.4 12.6-8.4 12.6z"/><path class="cls-3" d="M67.3 146.4s3.5 3.3 4.5 4 3.1 4.7 3.1 4.7l2 5-12 4.3-7.7-.3s-3 4.3-2 6 2.3 3.7 2.3 5-2.4 7-2.5 7.3l5.5-3.7s1.7 3.7-2 8.4 0 7 .7 8 6 2.3 6 2.3-2.7 8-5 14a37.5 37.5 0 0 0-1.6 6.2h348.7v-2.2s4.5-2.3 4.2-1.7 1.1 2.2 2.3 3.9h2.2v-12.4l6 6.4v-15.7l5.8 4.3 6.2.7v4.3l5.8.3s3.1-3.7 3.1-5.3-1-4-2-7-2.7-10.7-2.7-10.7-4-7-5.4-8-4.4-6-4.4-6-4.4-5.7-4.4-7.4 1.1-10.4 2.7-6 5.2 12.7 5.2 12.7v-13.4l-.6-3 5.5-6.3H67.6z"/><path class="cls-4" d="M56.8 231.3a33 33 0 0 0 2 10.4c2 5.3 3.7 10.4 3.7 10.4s1.7 15.4 1.7 18.7 3 10 3 12.4a44.4 44.4 0 0 0 1 7.3h337.1a59.1 59.1 0 0 1 2.2-7.3c1.3-2.7 5-8.7 5-9.7s-2.4-24.1-2.4-26.4.3-9.4.3-9.4l-3.4-10.4.2-9.5H58.5c-1.1 6.2-1.7 13.5-1.7 13.5zm359.1-10.7v-2.8h-2.2z"/><path class="cls-5" d="M68.9 292.8c.7 1.3 3 7.7 3 7.7l1.7 3.7-4 1.3s-1.7 14.4-2.7 29.1c-.8 12.2 6.4 24 9.1 28.4h321l4.4-15.3 2.7-24.1s-2.8-15.4-6.4-15.1a4 4 0 0 0 3.1-2c.9-1.7 2.8-9.9 4.5-16.1H68.2a12.5 12.5 0 0 0 .7 2.4z"/><path class="cls-6" d="M76.9 364.7c.3 1.3 12.6 24.8 12.6 24.8l.7 3.6 3 9s3 4.3 3 5.3a60.2 60.2 0 0 0 1.7 6.7l.3 1s4.3 12 4.3 14.4.2 3.4.4 6.1h262.3c.7-2.6 1.1-4.5 1.2-5.1s1.6-8.4 2.9-17.4c.6 0 13.7-8.5 15.3-14.1s8.4-22.5 8.4-22.5l4-13.5H75.9a11.4 11.4 0 0 1 1 1.7z"/><path class="cls-7" d="M103.6 444.9c0 2 11 26.1 11 26.1l9.6 20.4 12.3 16.8h203.2c5.1-5.8 11.4-13.8 12.5-19l.4-1.7c2-9.2 5.9-26.8 5.9-26.8s4.5-16.3 6.8-25.1H103c.3 3.8.6 8.1.6 9.3z"/><path class="cls-8" d="M153.9 531.9s33.9 34.8 36.1 37.4 32.5 8.9 43.7 8.5 42.3-8.5 49-14.7 48.5-46.8 50.3-48.1a77.8 77.8 0 0 0 6.7-6.8H136.5z"/></svg>