<svg id="Calque_1" xmlns="http://www.w3.org/2000/svg" viewBox="0 0 565 142"><style>.st0{fill:none;stroke:#fff;stroke-linejoin:bevel}.st1{fill:#fff}</style><title>introduction</title><path class="st0" d="M0 71l565 .1"/><path class="st1" d="M182.4 4.8v8.3h9.6V4.8h2.6v19.8H192v-9.3h-9.6v9.3h-2.5V4.8h2.5zm18 13.2c.1 3.5 2.3 4.9 4.9 4.9 1.4 0 2.7-.2 3.9-.7l.4 1.9c-1.5.6-3.1.9-4.7.9-4.4 0-7-2.9-7-7.2s2.5-7.7 6.7-7.7c4.6 0 5.9 4.1 5.9 6.7 0 .4 0 .8-.1 1.2h-10zm7.6-1.9c0-1.6-.7-4.2-3.6-4.2-2.6 0-3.8 2.4-4 4.2h7.6zm5.7-12.4h2.6v20.9h-2.6V3.7zm6.9 0h2.6v20.9h-2.6V3.7zm19.8 13.7c0 5.3-3.6 7.6-7.1 7.6-3.9 0-6.8-2.8-6.8-7.3 0-4.8 3.1-7.6 7.1-7.6s6.8 2.9 6.8 7.3zm-11.3.1c0 3.1 1.8 5.5 4.3 5.5s4.3-2.3 4.3-5.5c0-2.4-1.2-5.5-4.3-5.5s-4.3 2.8-4.3 5.5zm20.8-3.3c0-1.5 0-2.7-.1-3.8h2.2l.1 2.3h.1c.9-1.6 2.6-2.7 4.5-2.6 1.8 0 3.4 1.1 4 2.9h.1c.4-.7.9-1.4 1.6-1.9.9-.7 2-1 3.1-1 1.9 0 4.7 1.2 4.7 6.2v8.4h-2.5v-8c0-2.7-1-4.4-3.1-4.4-1.4.1-2.6 1-3.1 2.3-.1.4-.2.9-.2 1.3v8.8h-2.5v-8.6c0-2.3-1-3.9-3-3.9-1.5.1-2.8 1.1-3.2 2.6-.1.4-.2.8-.2 1.3v8.6h-2.5V14.2zm25-3.8l3.1 8.4c.3.9.7 2.1.9 2.9.3-.9.6-1.9.9-3l2.8-8.3h2.7l-3.9 10.1c-1.8 4.9-3.1 7.4-4.9 8.9-.9.8-2 1.4-3.2 1.7l-.7-2.2c.8-.3 1.6-.7 2.3-1.3.9-.8 1.7-1.8 2.2-2.9.1-.2.2-.4.2-.6 0-.2-.1-.5-.2-.7l-5.3-13.1 3.1.1zm19.1 3.8c0-1.5 0-2.7-.1-3.9h2.3l.1 2.4h.1c.9-1.7 2.8-2.7 4.7-2.7 2 0 5 1.2 5 6.1v8.5h-2.6v-8.2c0-2.3-.9-4.2-3.3-4.2-1.6 0-3 1.1-3.5 2.6-.1.4-.2.8-.2 1.2v8.6H294V14.2zm24.2 10.4l-.2-1.8h-.1c-1 1.4-2.6 2.1-4.4 2.1-2.2.2-4.2-1.5-4.3-3.7v-.3c0-3.4 3-5.3 8.5-5.3v-.3c0-1.2-.3-3.3-3.2-3.3-1.3 0-2.6.4-3.7 1.1l-.6-1.7c1.4-.9 3.1-1.3 4.8-1.3 4.4 0 5.4 3 5.4 5.8v5.3c0 1.1.1 2.3.2 3.4h-2.4zm-.4-7.3c-2.8-.1-6 .4-6 3.2-.1 1.3.8 2.4 2.1 2.5h.3c1.5 0 2.9-.9 3.4-2.4.1-.3.1-.5.1-.8l.1-2.5zm6.7-3.1c0-1.5 0-2.7-.1-3.9h2.3l.1 2.3h.1c.9-1.6 2.6-2.7 4.5-2.6 1.8 0 3.4 1.1 4 2.9h.1c.4-.7.9-1.4 1.6-1.8.9-.7 2-1 3.1-1 1.9 0 4.7 1.2 4.7 6.2v8.4h-2.5v-8c0-2.7-1-4.4-3.1-4.4-1.4.1-2.6 1-3 2.3-.1.4-.2.9-.2 1.3v8.7h-2.5v-8.5c0-2.3-1-3.9-3-3.9-1.5.1-2.8 1.1-3.2 2.6-.1.4-.2.8-.2 1.3v8.6h-2.5l-.2-10.5zm25.9 3.8c.1 3.5 2.3 4.9 4.9 4.9 1.4 0 2.7-.2 3.9-.7l.4 1.9c-1.5.6-3.1.9-4.7.9-4.4 0-7-2.9-7-7.2s2.5-7.7 6.7-7.7c4.6 0 5.9 4.1 5.9 6.7 0 .4 0 .8-.1 1.2h-10zm7.6-1.9c0-1.6-.7-4.2-3.6-4.2-2.6 0-3.8 2.4-4 4.2h7.6zm14.8-9.7c0 .9-.7 1.6-1.6 1.6s-1.6-.7-1.6-1.6c0-.9.7-1.6 1.5-1.6h.1c.8 0 1.6.6 1.6 1.5v.1zM370 24.6V10.4h2.6v14.2H370zm6.5-2.6c1 .6 2.2 1 3.4 1 1.9 0 2.8-.9 2.8-2.1s-.7-1.9-2.7-2.6c-2.5-.9-3.8-2.3-3.8-4 0-2.3 1.9-4.2 4.9-4.2 1.2 0 2.4.3 3.5.9l-.7 1.8c-.9-.5-1.9-.8-2.9-.8-1.5 0-2.4.9-2.4 1.9s.8 1.7 2.7 2.4c2.5.9 3.7 2.2 3.7 4.3 0 2.5-1.9 4.3-5.3 4.3-1.4 0-2.8-.3-4-1l.8-1.9zM226 89.1c0-1.3 1.1-2.4 2.5-2.4h.2c2 0 2.5 0 2.8-.2.2-.1.3-.3.2-.5 0-.7-.9-1.5-2.1-1.5-.9 0-1.7.4-2.1 1.2-.1.2-.3.4-.5.3-.3 0-.6-.2-.6-.5v-.1c0-1.1 1.9-2.1 3.3-2.1s3.1 1.1 3.1 2.6v4.9c0 .3-.2.6-.6.6-.3 0-.6-.3-.6-.6V90c-.7.9-1.9 1.4-3 1.3-1.6.2-2.6-.8-2.6-2.2zm5.7-1v-.8c-.9.3-1.9.4-2.9.3-1.1 0-1.7.5-1.7 1.4s.7 1.3 1.8 1.3c1.6 0 2.8-.7 2.8-2.2zm3.8 2.8V84c0-.3.3-.6.6-.6s.6.3.6.6v.9c.5-1 1.5-1.5 2.6-1.5 2 0 3.2 1.2 3.2 3.6v4c0 .3-.3.6-.6.6s-.6-.3-.6-.6v-4c.2-1.1-.5-2.1-1.6-2.3h-.6c-1.3-.1-2.4.9-2.4 2.1V91c0 .3-.3.6-.6.6s-.6-.3-.6-.7zm9.1-3V87c0-2 1.5-3.6 3.5-3.6.8 0 1.7.3 2.3.9V80c0-.3.3-.6.6-.6s.6.3.6.6v10.9c0 .3-.3.6-.6.6s-.6-.3-.6-.6v-.3c-.6.6-1.5.9-2.4.9-2-.1-3.5-1.7-3.4-3.6zm5.7 0V87c0-1.3-1-2.3-2.3-2.3-1.3 0-2.3 1-2.3 2.3v.9c0 1.3 1 2.3 2.3 2.4 1.3-.1 2.4-1.1 2.3-2.4.1 0 .1 0 0 0zm13.4 3c0-.3.2-.6.6-.6h2v-9.7h-2c-.3 0-.6-.3-.6-.6s.2-.6.6-.6h5.2c.3 0 .6.3.6.6s-.3.6-.6.6h-2v9.7h2c.3 0 .6.3.6.6s-.3.6-.6.6h-5.2c-.3 0-.6-.2-.6-.6zm11.1-6l1.4-3c-.7 0-1.2-.6-1.2-1.3 0-.7.6-1.3 1.2-1.3.7 0 1.3.6 1.2 1.3v1.3l-2 3.3-.6-.3zm7.3 6V84c0-.3.3-.6.6-.6.2 0 .4.1.5.2.3-.2.7-.2 1-.2.8.8 2 .8 2.8 0 1.1 0 2 .9 2 2.1V91c0 .3-.3.6-.6.6s-.6-.3-.6-.6v-5.5c0-.5-.4-.8-.8-.8s-.8.4-.8.8V91c0 .3-.3.6-.6.6s-.6-.3-.6-.6v-5.5c0-.5-.3-.8-.8-.8s-.8.4-.8.8v5.4c0 .3-.3.6-.6.6-.5 0-.7-.3-.7-.6zm18.5-1.8c0-1.3 1.1-2.4 2.5-2.4h.2c2 0 2.5 0 2.8-.2.2-.1.3-.3.2-.5 0-.7-.9-1.5-2.1-1.5-.9 0-1.7.4-2.1 1.2-.1.2-.3.4-.5.3-.3 0-.6-.2-.6-.5v-.1c0-1.1 1.9-2.1 3.3-2.1s3.1 1.1 3.1 2.6v4.9c0 .3-.2.6-.6.6-.3 0-.6-.3-.6-.6V90c-.7.9-1.8 1.4-3 1.3-1.7.2-2.6-.8-2.6-2.2zm5.7-1v-.8c-.9.3-1.9.4-2.9.3-1.1 0-1.7.5-1.7 1.4s.7 1.3 1.8 1.3c1.6 0 2.8-.7 2.8-2.2zm13.5-.2v-1c0-1.9 1.6-3.5 3.5-3.6 1.3 0 2.5.7 3.1 1.8 0 .1.1.2.1.3 0 .3-.3.6-.6.6-.4 0-.6-.4-.8-.7-.4-.5-1.1-.8-1.8-.8-1.3 0-2.3 1.1-2.3 2.3v1c0 1.3 1 2.3 2.3 2.3.8 0 1.5-.4 1.9-1.1.1-.3.4-.4.6-.5.3 0 .6.3.6.6 0 .1 0 .2-.1.3-.6 1.1-1.8 1.8-3.1 1.8-1.8.3-3.4-1.3-3.4-3.3zm8.8 3c0-.3.3-.6.6-.6h1V84c0-.3.2-.6.5-.6s.6.3.6.6v.8c.5-.8 1.4-1.3 2.4-1.4.7 0 1.5.2 2.1.7.1.1.2.2.2.4.1.3-.2.6-.5.7-.2 0-.3 0-.4-.1-.4-.3-.8-.5-1.3-.4-1.3 0-2.4 1-2.5 2.3v3.5h2.3c.3 0 .6.2.7.5 0 .3-.2.6-.5.7h-4.6c-.3-.1-.6-.4-.6-.8 0 .1 0 0 0 0zm9.5-3v-1c0-2 1.6-3.6 3.5-3.6 2.1 0 3.5 1.8 3.5 3.9 0 .3-.2.6-.5.7h-5.3c0 1.3 1.1 2.3 2.3 2.3.8 0 1.6-.5 2-1.2.1-.2.3-.3.5-.3.3 0 .6.2.6.5 0 .1 0 .2-.1.4-.9 1.7-3.1 2.3-4.8 1.4-.9-.6-1.6-1.8-1.7-3.1zm5.8-1.1c0-1.2-1-2.2-2.2-2.2-1.2 0-2.3.9-2.3 2.2h4.5zm3.3 2.3c0-1.3 1.1-2.4 2.5-2.4h.2c2 0 2.5 0 2.8-.2.2-.1.3-.3.2-.5 0-.7-.9-1.5-2.1-1.5-.9 0-1.7.4-2.1 1.2-.1.2-.3.4-.5.3-.3 0-.6-.2-.6-.5v-.1c0-1.1 1.9-2.1 3.3-2.1s3.1 1.1 3.1 2.6v4.9c0 .3-.2.6-.6.6-.3 0-.6-.3-.6-.6V90c-.7.9-1.9 1.4-3 1.3-1.6.2-2.6-.8-2.6-2.2zm5.8-1v-.8c-.9.3-1.9.4-2.9.3-1.1 0-1.7.5-1.7 1.4s.7 1.3 1.8 1.3c1.5 0 2.8-.7 2.8-2.2zm5.1.4v-4h-1.5c-.3 0-.6-.2-.6-.5v-.1c0-.3.2-.5.5-.5h1.5v-2.3c0-.3.3-.6.6-.6s.6.3.6.6v2.3h4.2c.3 0 .6.2.6.5s-.2.5-.5.5h-4.2v4c0 1 .8 1.8 1.8 1.8s1.8-.8 1.8-1.8c0-.3.3-.6.6-.6s.6.3.6.6c0 1.7-1.3 3-3 3s-3-1.3-3-2.9zm7.8 2.4c0-.3.3-.6.6-.6h2.8v-5.6h-2.8c-.3 0-.6-.3-.6-.6s.3-.6.6-.6h3.4c.3 0 .6.3.6.6v6.2h2.3c.3 0 .6.3.6.6s-.3.6-.6.6h-6.3c-.3 0-.6-.3-.6-.6zm2.9-9.9c0-.6.4-1 1-1s1 .4 1 1-.4 1-1 1-1-.4-1-1zm9.5 10.2l-3-7.2c0-.3.3-.6.6-.6.2 0 .5.1.5.4l2.4 5.6 2.4-5.6c.1-.2.3-.4.5-.4.3 0 .6.3.6.6l-3 7.2c-.1.2-.3.3-.5.3s-.4-.1-.5-.3zm6.5-3.3v-1c0-2 1.6-3.6 3.5-3.6 2.1 0 3.5 1.8 3.5 3.9 0 .3-.2.6-.5.7H386c0 1.3 1.1 2.3 2.3 2.3.8 0 1.6-.5 2-1.2.1-.2.3-.3.5-.3.3 0 .6.2.6.5 0 .1 0 .2-.1.4-.9 1.7-3 2.4-4.7 1.5-1.1-.6-1.8-1.8-1.8-3.2zm5.8-1.1c0-1.2-1-2.2-2.2-2.2-1.2 0-2.3.9-2.3 2.2h4.5zm12.2 4.1V80c0-.3.3-.6.6-.6s.6.3.6.6v8.2l2.2-4.7c.1-.3.5-.4.8-.3.1.1.3.2.3.3l2.2 4.7V80c0-.3.3-.6.6-.6s.6.3.6.6v10.9c0 .3-.3.6-.6.6-.2 0-.4-.1-.5-.3l-2.8-6-2.8 6c-.1.2-.3.4-.5.3-.5 0-.7-.3-.7-.6zm9.9-3v-1c0-2 1.6-3.6 3.5-3.6 2.1 0 3.5 1.8 3.5 3.9 0 .3-.2.6-.5.7H414c0 1.3 1.1 2.3 2.3 2.3.8 0 1.6-.5 2-1.2.1-.2.3-.3.5-.3.3 0 .6.2.6.5 0 .1 0 .2-.1.4-.9 1.7-3.1 2.3-4.8 1.4-1-.6-1.7-1.8-1.8-3.1zm5.8-1.1c0-1.2-1-2.2-2.2-2.2-1.2 0-2.3.9-2.3 2.2h4.5zm3.8 4.1v-11c0-.3.3-.6.6-.6s.6.3.6.6v4.3c.5-.5 1.2-.9 2-.9 2-.1 3.7 1.4 3.8 3.3v1.2c0 1.9-1.5 3.6-3.4 3.6-.9 0-1.7-.3-2.4-.9v.3c0 .3-.3.6-.6.6s-.6-.2-.6-.5zm5.7-3V87c0-1.3-1-2.3-2.3-2.3s-2.3 1-2.3 2.3v.9c0 1.3 1 2.3 2.2 2.4 1.4-.1 2.4-1.1 2.4-2.4zm12.8 3V80c0-.3.2-.6.6-.6h2.9c1.9 0 3.5 1.7 3.4 3.6v5c0 1.9-1.5 3.5-3.4 3.6h-2.9c-.3-.1-.6-.3-.6-.7zm3.5-.6c1.3-.1 2.3-1.1 2.2-2.3v-5c0-1.3-1-2.3-2.3-2.4H442v9.7h2.3zM450 88v-1c0-2 1.6-3.6 3.5-3.6 2.1 0 3.5 1.8 3.5 3.9 0 .3-.2.6-.6.6h-5.2c0 1.3 1.1 2.3 2.3 2.3.8 0 1.6-.5 2-1.2.1-.2.3-.3.5-.3.3 0 .6.2.6.5 0 .1 0 .2-.1.4-.8 1.8-2.9 2.5-4.7 1.6-1-.5-1.8-1.8-1.8-3.2zm5.8-1.2c0-1.2-1-2.2-2.2-2.2-1.2 0-2.3.9-2.3 2.2h4.5zm6.4 4.4l-3-7.2c0-.3.3-.6.6-.6.2 0 .5.1.5.4l2.4 5.6 2.4-5.6c.1-.2.3-.4.5-.4.3 0 .6.3.6.6l-3 7.2c-.1.2-.3.3-.5.3s-.4-.1-.5-.3zm6.5-3.2v-1c0-2 1.6-3.6 3.5-3.6 2.1 0 3.5 1.8 3.5 3.9 0 .5-.3.7-.6.7h-5.2c0 1.3 1.1 2.3 2.3 2.3.8 0 1.6-.5 2-1.2.1-.2.3-.3.5-.3.3 0 .6.2.6.5 0 .1 0 .2-.1.4-.9 1.7-3 2.4-4.7 1.6-1.1-.7-1.9-1.9-1.8-3.3zm5.8-1.2c0-1.2-1-2.2-2.2-2.2-1.2 0-2.3.9-2.3 2.2h4.5zm5.1 1.8v-8h-1.9c-.3 0-.6-.4-.5-.7 0-.3.3-.5.5-.5h2.5c.3 0 .6.3.6.6v8.7c-.1.9.6 1.7 1.5 1.7.9.1 1.7-.6 1.7-1.5v-.3c0-.3.3-.6.6-.6s.6.3.6.6c0 1.6-1.3 2.8-2.8 2.8-1.5.1-2.8-1.2-2.8-2.8zm7.6-.6v-1c-.1-1.9 1.4-3.6 3.3-3.7s3.6 1.4 3.7 3.3V88c.1 1.9-1.4 3.6-3.3 3.7s-3.6-1.4-3.7-3.3V88zm5.8 0v-1c.1-1.3-.9-2.4-2.2-2.5s-2.4.9-2.5 2.2V88c-.1 1.3.9 2.4 2.2 2.5s2.4-.9 2.5-2.2V88zm3.7 6.7V84c0-.3.3-.6.6-.6s.6.3.6.6v.8c.5-.9 1.5-1.4 2.5-1.4 1.9.1 3.4 1.7 3.4 3.6v.8c.1 1.9-1.4 3.5-3.3 3.6-1 0-2-.5-2.6-1.4v4.6c0 .3-.3.6-.6.6-.4.1-.6-.2-.6-.5zm5.8-6.8V87c.1-1.3-.9-2.4-2.2-2.5s-2.4.9-2.5 2.2v1.1c-.1 1.3.9 2.4 2.2 2.5s2.4-.9 2.5-2.2v-.2zm3.5 6.8V84c0-.3.3-.6.6-.6s.6.3.6.6v.8c.5-.9 1.5-1.4 2.5-1.4 1.9.1 3.4 1.7 3.4 3.6v.8c.1 1.9-1.4 3.5-3.3 3.6-1 0-2-.5-2.6-1.4v4.6c0 .3-.3.6-.6.6s-.6-.2-.6-.5zm5.8-6.8V87c.1-1.3-.9-2.4-2.2-2.5-1.3-.1-2.4.9-2.5 2.2v1.1c-.1 1.3.9 2.4 2.2 2.5 1.3.1 2.4-.9 2.5-2.2v-.2zm3.5.1v-1c0-2 1.6-3.6 3.5-3.6 2.1 0 3.5 1.8 3.5 3.9 0 .3-.2.6-.5.7h-5.3c0 1.3 1.1 2.3 2.3 2.3.8 0 1.6-.5 2-1.2.1-.2.3-.3.5-.3.3 0 .6.2.6.5 0 .1 0 .2-.1.4-.9 1.7-3 2.4-4.8 1.5-1-.6-1.7-1.9-1.7-3.2zm5.8-1.2c0-1.2-1-2.2-2.2-2.2-1.2 0-2.3.9-2.4 2.1l4.6.1zm3.3 4.1c0-.3.3-.6.6-.6h1V84c0-.3.2-.6.5-.6s.6.3.6.6v.8c.5-.8 1.4-1.4 2.3-1.4.7 0 1.5.2 2.1.7.1.1.2.2.2.4.1.3-.2.6-.5.7-.2 0-.3 0-.4-.1-.4-.3-.8-.5-1.3-.4-1.3 0-2.4 1-2.5 2.3v3.5h2.3c.3 0 .6.2.7.5 0 .3-.2.6-.5.7H525c-.3-.2-.6-.4-.6-.8zM52.8 58h-5.5l.8-6.3h12.5v16.8c-1.6.9-3.2 1.4-5 1.7-2 .4-4 .6-6 .6-3.1.1-6.3-.6-9.1-2-2.5-1.2-4.6-3.2-6-5.7-1.5-2.7-2.2-5.8-2.1-8.9-.1-3.1.7-6.2 2.3-8.9 1.5-2.5 3.7-4.6 6.3-5.9 2.7-1.4 5.7-2 8.8-2 1.9 0 3.8.3 5.6.7 1.7.4 3.3 1 4.8 1.9l-2.5 6c-1.4-.5-2.7-.9-4.2-1.2-1.2-.2-2.4-.3-3.6-.3-1.4 0-2.8.4-4 1.1-1.4.8-2.6 1.9-3.4 3.4-.9 1.6-1.4 3.5-1.3 5.3 0 1.9.4 3.7 1.3 5.4.7 1.3 1.8 2.4 3.2 3.2 1.3.7 2.7 1 4.1 1 1 0 2-.1 3-.3V58zm41.9 5.5l.8 6.8H71.9V38.1h21.3l.8 6.8H80.5v5.9h9.9l.8 6.8H80.5v6l14.2-.1zm-3.2-37.3l-5.4 9.4-6.2-1 3.1-8.4h8.5zm14.4 44.1V38.1h13.5c3.4-.1 6.7.8 9.5 2.8 2.5 1.8 3.7 4.6 3.7 8.2 0 1.7-.4 3.5-1.2 5-.8 1.4-1.9 2.6-3.2 3.5l7.1 12.7h-10l-5.2-10.1h-5.7v10.1h-8.5zm13.2-25.4h-4.6v8.5h4.7c1.2 0 2.4-.4 3.3-1.2.9-.8 1.3-1.9 1.3-3.1.1-1.2-.4-2.3-1.2-3.1-1-.8-2.2-1.2-3.5-1.1zm65.1-6.8h8.6v19.5c-.1 1.7.5 3.3 1.6 4.6 2.4 2.2 6 2.2 8.4 0 1.1-1.2 1.7-2.9 1.6-4.6V38.2h8.6V58c.1 2.5-.6 4.9-1.8 7-1.2 1.9-3 3.5-5.1 4.4-4.8 2-10.3 2-15.1 0-2.1-.9-3.9-2.5-5.1-4.4-1.2-2.1-1.9-4.5-1.8-7l.1-19.9zm56 32.2h-14.4V38.2h14.6c2.9-.1 5.7.6 8.3 2 2.2 1.3 4.1 3.3 5.2 5.6 1.2 2.6 1.8 5.4 1.7 8.2.1 3-.6 5.9-1.9 8.6-1.2 2.4-3.1 4.4-5.4 5.7-2.5 1.4-5.3 2.1-8.1 2zm-.2-25.4h-5.5v18.6h5.2c2 0 3.9-.9 5.1-2.5 1.3-1.6 2-4 2-7 .1-2.3-.5-4.6-1.8-6.6-1.1-1.6-3-2.6-5-2.5zm71.1-6.7v32.2h-8.6V57.8h-11.3v12.6h-8.6V38.2l8.6-.3V51h11.3V38.2h8.6zm36 25.4l.8 6.8h-23.6V38.2h21.3l.9 6.8h-13.6v5.9h9.9l.8 6.8h-10.7v6l14.2-.1zm19.8-10.2v16.9h-8.6V38.2h8l12.4 17.5V38.2h8.6v32.2h-8l-12.4-17zm33.6 17V38.2H414c3.4-.1 6.8.9 9.6 2.8 2.5 1.8 3.7 4.6 3.7 8.2 0 1.7-.4 3.5-1.2 5-.8 1.4-1.9 2.6-3.2 3.5l7.1 12.7h-10l-5.2-10.1h-5.7v10.1h-8.6zM413.8 45h-4.6v8.5h4.7c1.2 0 2.4-.4 3.3-1.2.9-.8 1.3-1.9 1.3-3.1.1-1.2-.3-2.4-1.2-3.2-1-.7-2.3-1.1-3.5-1zm34.8-6.8v32.2H440V38.2h8.6zm27.5-.6c3.1-.1 6.2.7 8.9 2.2 2.5 1.4 4.5 3.5 5.8 6 1.4 2.6 2 5.5 2 8.4.1 3.1-.7 6.1-2.1 8.8-1.4 2.5-3.4 4.6-5.9 6-5.5 2.9-12 2.9-17.4-.1-2.5-1.4-4.5-3.5-5.8-6-1.4-2.6-2-5.5-2-8.4-.1-3 .7-6.1 2.1-8.7 1.4-2.5 3.4-4.6 5.9-6 2.6-1.5 5.5-2.3 8.5-2.2zm-7.7 16.8c-.1 2.4.6 4.8 2.1 6.8 1.3 1.8 3.4 2.7 5.6 2.7 2.2.1 4.3-.9 5.7-2.5 1.5-1.7 2.2-4.1 2.2-7.2.1-2.4-.6-4.8-2.1-6.7-2.4-2.8-6.5-3.4-9.6-1.4-1.2.9-2.2 2-2.8 3.4-.8 1.5-1.2 3.2-1.1 4.9zm43.9-.9v16.9h-8.6V38.2h8l12.4 17.5V38.2h8.6v32.2h-8l-12.4-16.9zm-354-5l-7.7 21.9H142l12.1-32.2h8.6l12 31.8-8.5.8-7.9-22.3z"/><path transform="rotate(-16.824 159.779 64.046)" class="st1" d="M149.2 60.7h21.2v6.8h-21.2z"/></svg>