<?xml version="1.0" encoding="utf-8"?>
<!-- Generator: Adobe Illustrator 20.1.0, SVG Export Plug-In . SVG Version: 6.00 Build 0)  -->
<svg version="1.1" id="Calque_1" xmlns="http://www.w3.org/2000/svg" xmlns:xlink="http://www.w3.org/1999/xlink" x="0px" y="0px"
	 viewBox="0 0 565 142" style="enable-background:new 0 0 565 142;" xml:space="preserve">
<style type="text/css">
	.st0{fill:none;stroke:#FFFFFF;stroke-linejoin:bevel;}
	.st1{fill:#FFFFFF;}
</style>
<title>introduction</title>
<line class="st0" x1="0" y1="71" x2="565" y2="71.1"/>
<g>
	<g>
		<path class="st1" d="M182.4,4.8v8.3h9.6V4.8h2.6v19.8H192v-9.3h-9.6v9.3h-2.5V4.8H182.4z"/>
		<path class="st1" d="M200.4,18c0.1,3.5,2.3,4.9,4.9,4.9c1.4,0,2.7-0.2,3.9-0.7l0.4,1.9c-1.5,0.6-3.1,0.9-4.7,0.9
			c-4.4,0-7-2.9-7-7.2s2.5-7.7,6.7-7.7c4.6,0,5.9,4.1,5.9,6.7c0,0.4,0,0.8-0.1,1.2L200.4,18z M208,16.1c0-1.6-0.7-4.2-3.6-4.2
			c-2.6,0-3.8,2.4-4,4.2H208z"/>
		<path class="st1" d="M213.7,3.7h2.6v20.9h-2.6V3.7z"/>
		<path class="st1" d="M220.6,3.7h2.6v20.9h-2.6V3.7z"/>
		<path class="st1" d="M240.4,17.4c0,5.3-3.6,7.6-7.1,7.6c-3.9,0-6.8-2.8-6.8-7.3c0-4.8,3.1-7.6,7.1-7.6S240.4,13,240.4,17.4z
			 M229.1,17.5c0,3.1,1.8,5.5,4.3,5.5s4.3-2.3,4.3-5.5c0-2.4-1.2-5.5-4.3-5.5S229.1,14.8,229.1,17.5L229.1,17.5z"/>
		<path class="st1" d="M249.9,14.2c0-1.5,0-2.7-0.1-3.8h2.2l0.1,2.3h0.1c0.9-1.6,2.6-2.7,4.5-2.6c1.8,0,3.4,1.1,4,2.9h0.1
			c0.4-0.7,0.9-1.4,1.6-1.9c0.9-0.7,2-1,3.1-1c1.9,0,4.7,1.2,4.7,6.2v8.4h-2.5v-8c0-2.7-1-4.4-3.1-4.4c-1.4,0.1-2.6,1-3.1,2.3
			c-0.1,0.4-0.2,0.9-0.2,1.3v8.8h-2.5v-8.6c0-2.3-1-3.9-3-3.9c-1.5,0.1-2.8,1.1-3.2,2.6c-0.1,0.4-0.2,0.8-0.2,1.3v8.6h-2.5
			L249.9,14.2z"/>
		<path class="st1" d="M274.9,10.4l3.1,8.4c0.3,0.9,0.7,2.1,0.9,2.9h0c0.3-0.9,0.6-1.9,0.9-3l2.8-8.3h2.7l-3.9,10.1
			c-1.8,4.9-3.1,7.4-4.9,8.9c-0.9,0.8-2,1.4-3.2,1.7l-0.7-2.2c0.8-0.3,1.6-0.7,2.3-1.3c0.9-0.8,1.7-1.8,2.2-2.9
			c0.1-0.2,0.2-0.4,0.2-0.6c0-0.2-0.1-0.5-0.2-0.7l-5.3-13.1L274.9,10.4z"/>
		<path class="st1" d="M294,14.2c0-1.5,0-2.7-0.1-3.9h2.3l0.1,2.4h0.1c0.9-1.7,2.8-2.7,4.7-2.7c2,0,5,1.2,5,6.1v8.5h-2.6v-8.2
			c0-2.3-0.9-4.2-3.3-4.2c-1.6,0-3,1.1-3.5,2.6c-0.1,0.4-0.2,0.8-0.2,1.2v8.6H294L294,14.2z"/>
		<path class="st1" d="M318.2,24.6l-0.2-1.8h-0.1c-1,1.4-2.6,2.1-4.4,2.1c-2.2,0.2-4.2-1.5-4.3-3.7c0-0.1,0-0.2,0-0.3
			c0-3.4,3-5.3,8.5-5.3v-0.3c0-1.2-0.3-3.3-3.2-3.3c-1.3,0-2.6,0.4-3.7,1.1l-0.6-1.7c1.4-0.9,3.1-1.3,4.8-1.3c4.4,0,5.4,3,5.4,5.8
			v5.3c0,1.1,0.1,2.3,0.2,3.4L318.2,24.6z M317.8,17.3c-2.8-0.1-6,0.4-6,3.2c-0.1,1.3,0.8,2.4,2.1,2.5c0.1,0,0.2,0,0.3,0
			c1.5,0,2.9-0.9,3.4-2.4c0.1-0.3,0.1-0.5,0.1-0.8L317.8,17.3z"/>
		<path class="st1" d="M324.5,14.2c0-1.5,0-2.7-0.1-3.9h2.3l0.1,2.3h0.1c0.9-1.6,2.6-2.7,4.5-2.6c1.8,0,3.4,1.1,4,2.9h0.1
			c0.4-0.7,0.9-1.4,1.6-1.8c0.9-0.7,2-1,3.1-1c1.9,0,4.7,1.2,4.7,6.2v8.4h-2.5v-8c0-2.7-1-4.4-3.1-4.4c-1.4,0.1-2.6,1-3,2.3
			c-0.1,0.4-0.2,0.9-0.2,1.3v8.7h-2.5v-8.5c0-2.3-1-3.9-3-3.9c-1.5,0.1-2.8,1.1-3.2,2.6c-0.1,0.4-0.2,0.8-0.2,1.3v8.6h-2.5
			L324.5,14.2z"/>
		<path class="st1" d="M350.4,18c0.1,3.5,2.3,4.9,4.9,4.9c1.4,0,2.7-0.2,3.9-0.7l0.4,1.9c-1.5,0.6-3.1,0.9-4.7,0.9
			c-4.4,0-7-2.9-7-7.2s2.5-7.7,6.7-7.7c4.6,0,5.9,4.1,5.9,6.7c0,0.4,0,0.8-0.1,1.2H350.4z M358,16.1c0-1.6-0.7-4.2-3.6-4.2
			c-2.6,0-3.8,2.4-4,4.2H358z"/>
		<path class="st1" d="M372.8,6.4c0,0.9-0.7,1.6-1.6,1.6s-1.6-0.7-1.6-1.6c0-0.9,0.7-1.6,1.5-1.6c0,0,0.1,0,0.1,0
			c0.8,0,1.6,0.6,1.6,1.5C372.8,6.3,372.8,6.3,372.8,6.4z M370,24.6V10.4h2.6v14.2H370z"/>
		<path class="st1" d="M376.5,22c1,0.6,2.2,1,3.4,1c1.9,0,2.8-0.9,2.8-2.1s-0.7-1.9-2.7-2.6c-2.5-0.9-3.8-2.3-3.8-4
			c0-2.3,1.9-4.2,4.9-4.2c1.2,0,2.4,0.3,3.5,0.9l-0.7,1.8c-0.9-0.5-1.9-0.8-2.9-0.8c-1.5,0-2.4,0.9-2.4,1.9s0.8,1.7,2.7,2.4
			c2.5,0.9,3.7,2.2,3.7,4.3c0,2.5-1.9,4.3-5.3,4.3c-1.4,0-2.8-0.3-4-1L376.5,22z"/>
	</g>
	<path class="st1" d="M226,89.1c0-1.3,1.1-2.4,2.5-2.4c0.1,0,0.2,0,0.2,0c2,0,2.5,0,2.8-0.2c0.2-0.1,0.3-0.3,0.2-0.5
		c0-0.7-0.9-1.5-2.1-1.5c-0.9,0-1.7,0.4-2.1,1.2c-0.1,0.2-0.3,0.4-0.5,0.3c-0.3,0-0.6-0.2-0.6-0.5c0,0,0-0.1,0-0.1
		c0-1.1,1.9-2.1,3.3-2.1s3.1,1.1,3.1,2.6v4.9c0,0.3-0.2,0.6-0.6,0.6c0,0,0,0,0,0c-0.3,0-0.6-0.3-0.6-0.6c0,0,0,0,0,0v-0.8
		c-0.7,0.9-1.9,1.4-3,1.3C227,91.5,226,90.5,226,89.1z M231.7,88.1v-0.8c-0.9,0.3-1.9,0.4-2.9,0.3c-1.1,0-1.7,0.5-1.7,1.4
		s0.7,1.3,1.8,1.3C230.5,90.3,231.7,89.6,231.7,88.1L231.7,88.1z"/>
	<path class="st1" d="M235.5,90.9V84c0-0.3,0.3-0.6,0.6-0.6s0.6,0.3,0.6,0.6v0.9c0.5-1,1.5-1.5,2.6-1.5c2,0,3.2,1.2,3.2,3.6v4
		c0,0.3-0.3,0.6-0.6,0.6s-0.6-0.3-0.6-0.6v-4c0.2-1.1-0.5-2.1-1.6-2.3c-0.2,0-0.4,0-0.6,0c-1.3-0.1-2.4,0.9-2.4,2.1
		c0,0.1,0,0.1,0,0.2v4c0,0.3-0.3,0.6-0.6,0.6S235.5,91.3,235.5,90.9L235.5,90.9z"/>
	<path class="st1" d="M244.6,87.9V87c0-2,1.5-3.6,3.5-3.6c0.8,0,1.7,0.3,2.3,0.9v-4.3c0-0.3,0.3-0.6,0.6-0.6c0.3,0,0.6,0.3,0.6,0.6
		c0,0,0,0,0,0v10.9c0,0.3-0.3,0.6-0.6,0.6c-0.3,0-0.6-0.3-0.6-0.6c0,0,0,0,0,0v-0.3c-0.6,0.6-1.5,0.9-2.4,0.9
		C246,91.4,244.5,89.8,244.6,87.9z M250.3,87.9V87c0-1.3-1-2.3-2.3-2.3c-1.3,0-2.3,1-2.3,2.3l0,0v0.9c0,1.3,1,2.3,2.3,2.4
		C249.3,90.2,250.4,89.2,250.3,87.9C250.4,87.9,250.4,87.9,250.3,87.9L250.3,87.9z"/>
	<path class="st1" d="M263.7,90.9c0-0.3,0.2-0.6,0.6-0.6c0,0,0,0,0,0h2v-9.7h-2c-0.3,0-0.6-0.3-0.6-0.6c0,0,0,0,0,0
		c0-0.3,0.2-0.6,0.6-0.6c0,0,0,0,0,0h5.2c0.3,0,0.6,0.3,0.6,0.6c0,0.3-0.3,0.6-0.6,0.6h-2v9.7h2c0.3,0,0.6,0.3,0.6,0.6
		c0,0.3-0.3,0.6-0.6,0.6h-5.2C264,91.5,263.7,91.3,263.7,90.9C263.7,90.9,263.7,90.9,263.7,90.9z"/>
	<path class="st1" d="M274.8,84.9l1.4-3c-0.7,0-1.2-0.6-1.2-1.3c0-0.7,0.6-1.3,1.2-1.3c0.7,0,1.3,0.6,1.2,1.3c0,0,0,0,0,0v1.3
		l-2,3.3L274.8,84.9z"/>
	<path class="st1" d="M282.1,90.9V84c0-0.3,0.3-0.6,0.6-0.6c0.2,0,0.4,0.1,0.5,0.2c0.3-0.2,0.7-0.2,1-0.2c0.8,0.8,2,0.8,2.8,0
		c0,0,0,0,0,0c1.1,0,2,0.9,2,2.1v5.5c0,0.3-0.3,0.6-0.6,0.6s-0.6-0.3-0.6-0.6v-5.5c0-0.5-0.4-0.8-0.8-0.8c-0.4,0-0.8,0.4-0.8,0.8
		c0,0,0,0,0,0v5.5c0,0.3-0.3,0.6-0.6,0.6c-0.3,0-0.6-0.3-0.6-0.6v-5.5c0-0.5-0.3-0.8-0.8-0.8c0,0,0,0,0,0c-0.5,0-0.8,0.4-0.8,0.8
		v5.4c0,0.3-0.3,0.6-0.6,0.6C282.3,91.5,282.1,91.2,282.1,90.9z"/>
	<path class="st1" d="M300.6,89.1c0-1.3,1.1-2.4,2.5-2.4c0.1,0,0.2,0,0.2,0c2,0,2.5,0,2.8-0.2c0.2-0.1,0.3-0.3,0.2-0.5
		c0-0.7-0.9-1.5-2.1-1.5c-0.9,0-1.7,0.4-2.1,1.2c-0.1,0.2-0.3,0.4-0.5,0.3c-0.3,0-0.6-0.2-0.6-0.5c0,0,0-0.1,0-0.1
		c0-1.1,1.9-2.1,3.3-2.1s3.1,1.1,3.1,2.6v4.9c0,0.3-0.2,0.6-0.6,0.6c0,0,0,0,0,0c-0.3,0-0.6-0.3-0.6-0.6c0,0,0,0,0,0v-0.8
		c-0.7,0.9-1.8,1.4-3,1.3C301.5,91.5,300.6,90.5,300.6,89.1z M306.3,88.1v-0.8c-0.9,0.3-1.9,0.4-2.9,0.3c-1.1,0-1.7,0.5-1.7,1.4
		s0.7,1.3,1.8,1.3C305.1,90.3,306.3,89.6,306.3,88.1L306.3,88.1z"/>
	<path class="st1" d="M319.8,87.9v-1c0-1.9,1.6-3.5,3.5-3.6c1.3,0,2.5,0.7,3.1,1.8c0,0.1,0.1,0.2,0.1,0.3c0,0.3-0.3,0.6-0.6,0.6
		c-0.4,0-0.6-0.4-0.8-0.7c-0.4-0.5-1.1-0.8-1.8-0.8c-1.3,0-2.3,1.1-2.3,2.3v1c0,1.3,1,2.3,2.3,2.3c0.8,0,1.5-0.4,1.9-1.1
		c0.1-0.3,0.4-0.4,0.6-0.5c0.3,0,0.6,0.3,0.6,0.6c0,0.1,0,0.2-0.1,0.3c-0.6,1.1-1.8,1.8-3.1,1.8C321.4,91.5,319.8,89.9,319.8,87.9z"
		/>
	<path class="st1" d="M328.6,90.9c0-0.3,0.3-0.6,0.6-0.6h1V84c0-0.3,0.2-0.6,0.5-0.6c0,0,0,0,0,0c0.3,0,0.6,0.3,0.6,0.6v0.8
		c0.5-0.8,1.4-1.3,2.4-1.4c0.7,0,1.5,0.2,2.1,0.7c0.1,0.1,0.2,0.2,0.2,0.4c0.1,0.3-0.2,0.6-0.5,0.7c-0.2,0-0.3,0-0.4-0.1
		c-0.4-0.3-0.8-0.5-1.3-0.4c-1.3,0-2.4,1-2.5,2.3c0,0,0,0.1,0,0.1v3.4h2.3c0.3,0,0.6,0.2,0.7,0.5c0,0.3-0.2,0.6-0.5,0.7
		c-0.1,0-0.1,0-0.2,0h-4.4C328.9,91.6,328.6,91.3,328.6,90.9C328.6,91,328.6,90.9,328.6,90.9z"/>
	<path class="st1" d="M338.1,87.9v-1c0-2,1.6-3.6,3.5-3.6c0,0,0,0,0,0c2.1,0,3.5,1.8,3.5,3.9c0,0.3-0.2,0.6-0.5,0.7c0,0-0.1,0-0.1,0
		h-5.2c0,1.3,1.1,2.3,2.3,2.3c0,0,0,0,0,0c0.8,0,1.6-0.5,2-1.2c0.1-0.2,0.3-0.3,0.5-0.3c0.3,0,0.6,0.2,0.6,0.5c0,0.1,0,0.2-0.1,0.4
		c-0.9,1.7-3.1,2.3-4.8,1.4C338.9,90.4,338.2,89.2,338.1,87.9L338.1,87.9z M343.9,86.8c0-1.2-1-2.2-2.2-2.2c-1.2,0-2.3,0.9-2.3,2.2
		L343.9,86.8z"/>
	<path class="st1" d="M347.2,89.1c0-1.3,1.1-2.4,2.5-2.4c0.1,0,0.2,0,0.2,0c2,0,2.5,0,2.8-0.2c0.2-0.1,0.3-0.3,0.2-0.5
		c0-0.7-0.9-1.5-2.1-1.5c-0.9,0-1.7,0.4-2.1,1.2c-0.1,0.2-0.3,0.4-0.5,0.3c-0.3,0-0.6-0.2-0.6-0.5c0,0,0-0.1,0-0.1
		c0-1.1,1.9-2.1,3.3-2.1s3.1,1.1,3.1,2.6v4.9c0,0.3-0.2,0.6-0.6,0.6c0,0,0,0,0,0c-0.3,0-0.6-0.3-0.6-0.6c0,0,0,0,0,0v-0.8
		c-0.7,0.9-1.9,1.4-3,1.3C348.2,91.5,347.2,90.5,347.2,89.1z M353,88.1v-0.8c-0.9,0.3-1.9,0.4-2.9,0.3c-1.1,0-1.7,0.5-1.7,1.4
		s0.7,1.3,1.8,1.3C351.7,90.3,353,89.6,353,88.1L353,88.1z"/>
	<path class="st1" d="M358.1,88.5v-4h-1.5c-0.3,0-0.6-0.2-0.6-0.5c0,0,0,0,0-0.1c0-0.3,0.2-0.5,0.5-0.5c0,0,0,0,0,0h1.5v-2.3
		c0-0.3,0.3-0.6,0.6-0.6c0.3,0,0.6,0.3,0.6,0.6v2.3h4.2c0.3,0,0.6,0.2,0.6,0.5c0,0,0,0,0,0c0,0.3-0.2,0.5-0.5,0.5c0,0,0,0-0.1,0
		h-4.1v4c0,1,0.8,1.8,1.8,1.8c1,0,1.8-0.8,1.8-1.8c0-0.3,0.3-0.6,0.6-0.6c0.3,0,0.6,0.3,0.6,0.6c0,1.7-1.3,3-3,3
		S358.1,90.1,358.1,88.5L358.1,88.5z"/>
	<path class="st1" d="M365.9,90.9c0-0.3,0.3-0.6,0.6-0.6h2.8v-5.6h-2.8c-0.3,0-0.6-0.3-0.6-0.6c0,0,0,0,0,0c0-0.3,0.3-0.6,0.6-0.6
		h3.4c0.3,0,0.6,0.3,0.6,0.6v6.2h2.3c0.3,0,0.6,0.3,0.6,0.6c0,0.3-0.3,0.6-0.6,0.6c0,0,0,0,0,0h-6.3
		C366.2,91.5,365.9,91.2,365.9,90.9z M368.8,81c0-0.6,0.4-1,1-1s1,0.4,1,1s-0.4,1-1,1S368.8,81.6,368.8,81z"/>
	<path class="st1" d="M378.3,91.2l-3-7.2c0-0.3,0.3-0.6,0.6-0.6c0,0,0,0,0,0c0.2,0,0.5,0.1,0.5,0.4l2.4,5.6l2.4-5.6
		c0.1-0.2,0.3-0.4,0.5-0.4c0.3,0,0.6,0.3,0.6,0.6c0,0,0,0,0,0l-3,7.2c-0.1,0.2-0.3,0.3-0.5,0.3C378.6,91.5,378.4,91.4,378.3,91.2z"
		/>
	<path class="st1" d="M384.8,87.9v-1c0-2,1.6-3.6,3.5-3.6c0,0,0,0,0,0c2.1,0,3.5,1.8,3.5,3.9c0,0.3-0.2,0.6-0.5,0.7c0,0-0.1,0-0.1,0
		H386c0,1.3,1.1,2.3,2.3,2.3c0,0,0,0,0,0c0.8,0,1.6-0.5,2-1.2c0.1-0.2,0.3-0.3,0.5-0.3c0.3,0,0.6,0.2,0.6,0.5c0,0.1,0,0.2-0.1,0.4
		c-0.9,1.7-3,2.4-4.7,1.5C385.5,90.5,384.8,89.3,384.8,87.9L384.8,87.9z M390.6,86.8c0-1.2-1-2.2-2.2-2.2c-1.2,0-2.3,0.9-2.3,2.2
		L390.6,86.8z"/>
	<path class="st1" d="M402.8,90.9V80c0-0.3,0.3-0.6,0.6-0.6c0,0,0,0,0,0c0.3,0,0.6,0.3,0.6,0.6c0,0,0,0,0,0v8.2l2.2-4.7
		c0.1-0.3,0.5-0.4,0.8-0.3c0.1,0.1,0.3,0.2,0.3,0.3l2.2,4.7V80c0-0.3,0.3-0.6,0.6-0.6c0.3,0,0.6,0.3,0.6,0.6v10.9
		c0,0.3-0.3,0.6-0.6,0.6c0,0,0,0,0,0c-0.2,0-0.4-0.1-0.5-0.3l-2.8-6l-2.8,6c-0.1,0.2-0.3,0.4-0.5,0.3
		C403,91.5,402.8,91.2,402.8,90.9z"/>
	<path class="st1" d="M412.7,87.9v-1c0-2,1.6-3.6,3.5-3.6c0,0,0,0,0,0c2.1,0,3.5,1.8,3.5,3.9c0,0.3-0.2,0.6-0.5,0.7c0,0-0.1,0-0.1,0
		H414c0,1.3,1.1,2.3,2.3,2.3c0,0,0,0,0,0c0.8,0,1.6-0.5,2-1.2c0.1-0.2,0.3-0.3,0.5-0.3c0.3,0,0.6,0.2,0.6,0.5c0,0.1,0,0.2-0.1,0.4
		c-0.9,1.7-3.1,2.3-4.8,1.4C413.5,90.4,412.8,89.2,412.7,87.9L412.7,87.9z M418.5,86.8c0-1.2-1-2.2-2.2-2.2c-1.2,0-2.3,0.9-2.3,2.2
		H418.5z"/>
	<path class="st1" d="M422.3,90.9V79.9c0-0.3,0.3-0.6,0.6-0.6c0,0,0,0,0,0c0.3,0,0.6,0.3,0.6,0.6v4.3c0.5-0.5,1.2-0.9,2-0.9
		c2-0.1,3.7,1.4,3.8,3.3c0,0.1,0,0.2,0,0.3v0.9c0,1.9-1.5,3.6-3.4,3.6c-0.9,0-1.7-0.3-2.4-0.9v0.3c0,0.3-0.3,0.6-0.6,0.6
		S422.3,91.2,422.3,90.9L422.3,90.9z M428,87.9V87c0-1.3-1-2.3-2.3-2.3s-2.3,1-2.3,2.3c0,0,0,0,0,0v0.9c0,1.3,1,2.3,2.2,2.4
		c0,0,0,0,0,0C427,90.2,428,89.2,428,87.9L428,87.9z"/>
	<path class="st1" d="M440.8,90.9V80c0-0.3,0.2-0.6,0.6-0.6c0,0,0,0,0,0h2.9c1.9,0,3.5,1.7,3.4,3.6v5c0,1.9-1.5,3.5-3.4,3.6h-2.9
		C441.1,91.5,440.8,91.3,440.8,90.9C440.8,90.9,440.8,90.9,440.8,90.9z M444.3,90.3c1.3-0.1,2.3-1.1,2.2-2.3v-5c0-1.3-1-2.3-2.3-2.4
		H442v9.7H444.3z"/>
	<path class="st1" d="M450,88v-1c0-2,1.6-3.6,3.5-3.6c0,0,0,0,0,0c2.1,0,3.5,1.8,3.5,3.9c0,0.3-0.2,0.6-0.6,0.6c0,0,0,0,0,0h-5.2
		c0,1.3,1.1,2.3,2.3,2.3c0,0,0,0,0,0c0.8,0,1.6-0.5,2-1.2c0.1-0.2,0.3-0.3,0.5-0.3c0.3,0,0.6,0.2,0.6,0.5c0,0.1,0,0.2-0.1,0.4
		c-0.8,1.8-2.9,2.5-4.7,1.6C450.8,90.7,450,89.4,450,88z M455.8,86.8c0-1.2-1-2.2-2.2-2.2c-1.2,0-2.3,0.9-2.3,2.2L455.8,86.8z"/>
	<path class="st1" d="M462.2,91.2l-3-7.2c0-0.3,0.3-0.6,0.6-0.6c0,0,0,0,0,0c0.2,0,0.5,0.1,0.5,0.4l2.4,5.6l2.4-5.6
		c0.1-0.2,0.3-0.4,0.5-0.4c0.3,0,0.6,0.3,0.6,0.6c0,0,0,0,0,0l-3,7.2c-0.1,0.2-0.3,0.3-0.5,0.3C462.5,91.5,462.3,91.4,462.2,91.2z"
		/>
	<path class="st1" d="M468.7,88v-1c0-2,1.6-3.6,3.5-3.6c0,0,0,0,0,0c2.1,0,3.5,1.8,3.5,3.9c0,0.5-0.3,0.7-0.6,0.7h-5.2
		c0,1.3,1.1,2.3,2.3,2.3c0,0,0,0,0,0c0.8,0,1.6-0.5,2-1.2c0.1-0.2,0.3-0.3,0.5-0.3c0.3,0,0.6,0.2,0.6,0.5c0,0.1,0,0.2-0.1,0.4
		c-0.9,1.7-3,2.4-4.7,1.6C469.4,90.6,468.6,89.4,468.7,88z M474.5,86.8c0-1.2-1-2.2-2.2-2.2c-1.2,0-2.3,0.9-2.3,2.2H474.5z"/>
	<path class="st1" d="M479.6,88.6v-8h-1.9c-0.3,0-0.6-0.4-0.5-0.7c0-0.3,0.3-0.5,0.5-0.5h2.5c0.3,0,0.6,0.3,0.6,0.6c0,0,0,0,0,0v8.7
		c-0.1,0.9,0.6,1.7,1.5,1.7c0.9,0.1,1.7-0.6,1.7-1.5c0-0.1,0-0.2,0-0.3c0-0.3,0.3-0.6,0.6-0.6c0,0,0,0,0,0c0.3,0,0.6,0.3,0.6,0.6
		c0,0,0,0,0,0c0,1.6-1.3,2.8-2.8,2.8C480.9,91.5,479.6,90.2,479.6,88.6L479.6,88.6z"/>
	<path class="st1" d="M487.2,88v-1c-0.1-1.9,1.4-3.6,3.3-3.7s3.6,1.4,3.7,3.3c0,0.1,0,0.3,0,0.4v1c0.1,1.9-1.4,3.6-3.3,3.7
		s-3.6-1.4-3.7-3.3C487.2,88.3,487.2,88.1,487.2,88z M493,88v-1c0.1-1.3-0.9-2.4-2.2-2.5s-2.4,0.9-2.5,2.2c0,0.1,0,0.2,0,0.3v1
		c-0.1,1.3,0.9,2.4,2.2,2.5s2.4-0.9,2.5-2.2C493,88.2,493,88.1,493,88z"/>
	<path class="st1" d="M496.7,94.7V84c0-0.3,0.3-0.6,0.6-0.6c0.3,0,0.6,0.3,0.6,0.6v0.8c0.5-0.9,1.5-1.4,2.5-1.4
		c1.9,0.1,3.4,1.7,3.4,3.6v0.8c0.1,1.9-1.4,3.5-3.3,3.6c-1,0-2-0.5-2.6-1.4v4.6c0,0.3-0.3,0.6-0.6,0.6
		C496.9,95.3,496.7,95,496.7,94.7L496.7,94.7z M502.5,87.9V87c0.1-1.3-0.9-2.4-2.2-2.5s-2.4,0.9-2.5,2.2c0,0.1,0,0.2,0,0.3v0.8
		c-0.1,1.3,0.9,2.4,2.2,2.5s2.4-0.9,2.5-2.2C502.5,88,502.5,87.9,502.5,87.9L502.5,87.9z"/>
	<path class="st1" d="M506,94.7V84c0-0.3,0.3-0.6,0.6-0.6c0.3,0,0.6,0.3,0.6,0.6v0.8c0.5-0.9,1.5-1.4,2.5-1.4
		c1.9,0.1,3.4,1.7,3.4,3.6v0.8c0.1,1.9-1.4,3.5-3.3,3.6c-1,0-2-0.5-2.6-1.4v4.6c0,0.3-0.3,0.6-0.6,0.6C506.3,95.2,506,95,506,94.7
		L506,94.7z M511.8,87.9V87c0.1-1.3-0.9-2.4-2.2-2.5c-1.3-0.1-2.4,0.9-2.5,2.2c0,0.1,0,0.2,0,0.3v0.8c-0.1,1.3,0.9,2.4,2.2,2.5
		c1.3,0.1,2.4-0.9,2.5-2.2C511.8,88,511.8,87.9,511.8,87.9L511.8,87.9z"/>
	<path class="st1" d="M515.3,88v-1c0-2,1.6-3.6,3.5-3.6c0,0,0,0,0,0c2.1,0,3.5,1.8,3.5,3.9c0,0.3-0.2,0.6-0.5,0.7c0,0-0.1,0-0.1,0
		h-5.2c0,1.3,1.1,2.3,2.3,2.3c0,0,0,0,0,0c0.8,0,1.6-0.5,2-1.2c0.1-0.2,0.3-0.3,0.5-0.3c0.3,0,0.6,0.2,0.6,0.5c0,0.1,0,0.2-0.1,0.4
		c-0.9,1.7-3,2.4-4.8,1.5C516,90.6,515.3,89.3,515.3,88z M521.1,86.8c0-1.2-1-2.2-2.2-2.2c-1.2,0-2.3,0.9-2.4,2.1L521.1,86.8z"/>
	<path class="st1" d="M524.4,90.9c0-0.3,0.3-0.6,0.6-0.6l0,0h1V84c0-0.3,0.2-0.6,0.5-0.6c0,0,0,0,0,0c0.3,0,0.6,0.3,0.6,0.6
		c0,0,0,0,0,0v0.8c0.5-0.8,1.4-1.4,2.3-1.4c0.7,0,1.5,0.2,2.1,0.7c0.1,0.1,0.2,0.2,0.2,0.4c0.1,0.3-0.2,0.6-0.5,0.7
		c-0.2,0-0.3,0-0.4-0.1c-0.4-0.3-0.8-0.5-1.3-0.4c-1.3,0-2.4,1-2.5,2.3c0,0,0,0.1,0,0.1v3.4h2.3c0.3,0,0.6,0.2,0.7,0.5
		c0,0.3-0.2,0.6-0.5,0.7c-0.1,0-0.1,0-0.2,0H525C524.7,91.5,524.4,91.3,524.4,90.9z"/>
	<path class="st1" d="M52.8,58h-5.5l0.8-6.3h12.5v16.8c-1.6,0.9-3.2,1.4-5,1.7c-2,0.4-4,0.6-6,0.6c-3.1,0.1-6.3-0.6-9.1-2
		c-2.5-1.2-4.6-3.2-6-5.7c-1.5-2.7-2.2-5.8-2.1-8.9c-0.1-3.1,0.7-6.2,2.3-8.9c1.5-2.5,3.7-4.6,6.3-5.9c2.7-1.4,5.7-2,8.8-2
		c1.9,0,3.8,0.3,5.6,0.7c1.7,0.4,3.3,1,4.8,1.9L57.7,46c-1.4-0.5-2.7-0.9-4.2-1.2c-1.2-0.2-2.4-0.3-3.6-0.3c-1.4,0-2.8,0.4-4,1.1
		c-1.4,0.8-2.6,1.9-3.4,3.4c-0.9,1.6-1.4,3.5-1.3,5.3c0,1.9,0.4,3.7,1.3,5.4c0.7,1.3,1.8,2.4,3.2,3.2c1.3,0.7,2.7,1,4.1,1
		c1,0,2-0.1,3-0.3L52.8,58z"/>
	<path class="st1" d="M94.7,63.5l0.8,6.8H71.9V38.1h21.3l0.8,6.8H80.5v5.9h9.9l0.8,6.8H80.5v6L94.7,63.5z M91.5,26.2l-5.4,9.4
		l-6.2-1l3.1-8.4L91.5,26.2z"/>
	<path class="st1" d="M105.9,70.3V38.1h13.5c3.4-0.1,6.7,0.8,9.5,2.8c2.5,1.8,3.7,4.6,3.7,8.2c0,1.7-0.4,3.5-1.2,5
		c-0.8,1.4-1.9,2.6-3.2,3.5l7.1,12.7h-10l-5.2-10.1h-5.7v10.1H105.9z M119.1,44.9h-4.6v8.5h4.7c1.2,0,2.4-0.4,3.3-1.2
		c0.9-0.8,1.3-1.9,1.3-3.1c0.1-1.2-0.4-2.3-1.2-3.1C121.6,45.2,120.4,44.8,119.1,44.9z"/>
	<path class="st1" d="M184.2,38.1h8.6v19.5c-0.1,1.7,0.5,3.3,1.6,4.6c2.4,2.2,6,2.2,8.4,0c1.1-1.2,1.7-2.9,1.6-4.6V38.2h8.6V58
		c0.1,2.5-0.6,4.9-1.8,7c-1.2,1.9-3,3.5-5.1,4.4c-4.8,2-10.3,2-15.1,0c-2.1-0.9-3.9-2.5-5.1-4.4c-1.2-2.1-1.9-4.5-1.8-7L184.2,38.1z
		"/>
	<path class="st1" d="M240.2,70.3h-14.4V38.2h14.6c2.9-0.1,5.7,0.6,8.3,2c2.2,1.3,4.1,3.3,5.2,5.6c1.2,2.6,1.8,5.4,1.7,8.2
		c0.1,3-0.6,5.9-1.9,8.6c-1.2,2.4-3.1,4.4-5.4,5.7C245.8,69.7,243,70.4,240.2,70.3z M240,44.9h-5.5v18.6h5.2c2,0,3.9-0.9,5.1-2.5
		c1.3-1.6,2-4,2-7c0.1-2.3-0.5-4.6-1.8-6.6C243.9,45.8,242,44.8,240,44.9L240,44.9z"/>
	<path class="st1" d="M311.1,38.2v32.2h-8.6V57.8h-11.3v12.6h-8.6V38.2l8.6-0.3V51h11.3V38.2L311.1,38.2z"/>
	<path class="st1" d="M347.1,63.6l0.8,6.8h-23.6V38.2h21.3l0.9,6.8h-13.6v5.9h9.9l0.8,6.8h-10.7v6L347.1,63.6z"/>
	<path class="st1" d="M366.9,53.4v16.9h-8.6V38.2h8l12.4,17.5V38.2h8.6v32.2h-8L366.9,53.4z"/>
	<path class="st1" d="M400.5,70.4V38.2H414c3.4-0.1,6.8,0.9,9.6,2.8c2.5,1.8,3.7,4.6,3.7,8.2c0,1.7-0.4,3.5-1.2,5
		c-0.8,1.4-1.9,2.6-3.2,3.5l7.1,12.7h-10l-5.2-10.1h-5.7v10.1H400.5z M413.8,45h-4.6v8.5h4.7c1.2,0,2.4-0.4,3.3-1.2
		c0.9-0.8,1.3-1.9,1.3-3.1c0.1-1.2-0.3-2.4-1.2-3.2C416.3,45.3,415,44.9,413.8,45z"/>
	<path class="st1" d="M448.6,38.2v32.2H440V38.2H448.6z"/>
	<path class="st1" d="M476.1,37.6c3.1-0.1,6.2,0.7,8.9,2.2c2.5,1.4,4.5,3.5,5.8,6c1.4,2.6,2,5.5,2,8.4c0.1,3.1-0.7,6.1-2.1,8.8
		c-1.4,2.5-3.4,4.6-5.9,6c-5.5,2.9-12,2.9-17.4-0.1c-2.5-1.4-4.5-3.5-5.8-6c-1.4-2.6-2-5.5-2-8.4c-0.1-3,0.7-6.1,2.1-8.7
		c1.4-2.5,3.4-4.6,5.9-6C470.2,38.3,473.1,37.5,476.1,37.6z M468.4,54.4c-0.1,2.4,0.6,4.8,2.1,6.8c1.3,1.8,3.4,2.7,5.6,2.7
		c2.2,0.1,4.3-0.9,5.7-2.5c1.5-1.7,2.2-4.1,2.2-7.2c0.1-2.4-0.6-4.8-2.1-6.7c-2.4-2.8-6.5-3.4-9.6-1.4c-1.2,0.9-2.2,2-2.8,3.4
		C468.7,51,468.3,52.7,468.4,54.4z"/>
	<path class="st1" d="M512.3,53.5v16.9h-8.6V38.2h8l12.4,17.5V38.2h8.6v32.2h-8L512.3,53.5z"/>
	<path class="st1" d="M158.3,48.5l-7.7,21.9H142l12.1-32.2h8.6l12,31.8l-8.5,0.8L158.3,48.5z"/>
	
		<rect x="149.2" y="60.7" transform="matrix(0.9572 -0.2894 0.2894 0.9572 -11.6965 48.9812)" class="st1" width="21.2" height="6.8"/>
</g>
</svg>
