<!-- build with : http://codepen.io/Fuunnx/pen/vydLMQ -->

<svg width="100" height="74.07407407407406" viewbow="0 0 1 1" preserveAspectRatio="xMidYMid meet" xmlns="http://www.w3.org/2000/svg"><line vector-effect="non-scaling-stroke" x1="25.93%" y1="50%" x2="38.89%" y2="32.5%" stroke="white" stroke-width="1px"></line><line vector-effect="non-scaling-stroke" x1="38.89%" y1="67.5%" x2="51.85%" y2="50%" stroke="white" stroke-width="1px"></line><line vector-effect="non-scaling-stroke" x1="25.93%" y1="50%" x2="38.89%" y2="67.5%" stroke="white" stroke-width="1px"></line><line vector-effect="non-scaling-stroke" x1="38.89%" y1="32.5%" x2="51.85%" y2="50%" stroke="white" stroke-width="1px"></line><line vector-effect="non-scaling-stroke" x1="38.89%" y1="50%" x2="57.41%" y2="25%" stroke="white" stroke-width="1px"></line><line vector-effect="non-scaling-stroke" x1="57.41%" y1="75%" x2="75.93%" y2="50%" stroke="white" stroke-width="1px"></line><line vector-effect="non-scaling-stroke" x1="38.89%" y1="50%" x2="57.41%" y2="75%" stroke="white" stroke-width="1px"></line><line vector-effect="non-scaling-stroke" x1="57.41%" y1="25%" x2="75.93%" y2="50%" stroke="white" stroke-width="1px"></line><line vector-effect="non-scaling-stroke" x1="25.93%" y1="50%" x2="38.89%" y2="50%" stroke="white" stroke-width="1px"></line><line vector-effect="non-scaling-stroke" x1="38.89%" y1="32.5%" x2="57.41%" y2="25%" stroke="white" stroke-width="1px"></line><line vector-effect="non-scaling-stroke" x1="38.89%" y1="67.5%" x2="57.41%" y2="75%" stroke="white" stroke-width="1px"></line><line vector-effect="non-scaling-stroke" x1="51.85%" y1="50%" x2="75.93%" y2="50%" stroke="white" stroke-width="1px"></line><line vector-effect="non-scaling-stroke" x1="0%" y1="50%" x2="25.93%" y2="15%" stroke="white" stroke-width="1px"></line><line vector-effect="non-scaling-stroke" x1="25.93%" y1="85%" x2="51.85%" y2="50%" stroke="white" stroke-width="1px"></line><line vector-effect="non-scaling-stroke" x1="0%" y1="50%" x2="25.93%" y2="85%" stroke="white" stroke-width="1px"></line><line vector-effect="non-scaling-stroke" x1="25.93%" y1="15%" x2="51.85%" y2="50%" stroke="white" stroke-width="1px"></line><line vector-effect="non-scaling-stroke" x1="25.93%" y1="50%" x2="62.96%" y2="0%" stroke="white" stroke-width="1px"></line><line vector-effect="non-scaling-stroke" x1="62.96%" y1="100%" x2="100%" y2="50%" stroke="white" stroke-width="1px"></line><line vector-effect="non-scaling-stroke" x1="25.93%" y1="50%" x2="62.96%" y2="100%" stroke="white" stroke-width="1px"></line><line vector-effect="non-scaling-stroke" x1="62.96%" y1="0%" x2="100%" y2="50%" stroke="white" stroke-width="1px"></line><line vector-effect="non-scaling-stroke" x1="0%" y1="50%" x2="25.93%" y2="50%" stroke="white" stroke-width="1px"></line><line vector-effect="non-scaling-stroke" x1="25.93%" y1="15%" x2="62.96%" y2="0%" stroke="white" stroke-width="1px"></line><line vector-effect="non-scaling-stroke" x1="25.93%" y1="85%" x2="62.96%" y2="100%" stroke="white" stroke-width="1px"></line><line vector-effect="non-scaling-stroke" x1="51.85%" y1="50%" x2="100%" y2="50%" stroke="white" stroke-width="1px"></line><line vector-effect="non-scaling-stroke" x1="25.93%" y1="50%" x2="0%" y2="50%" stroke="white" stroke-width="1px"></line><line vector-effect="non-scaling-stroke" x1="38.89%" y1="32.5%" x2="25.93%" y2="15%" stroke="white" stroke-width="1px"></line><line vector-effect="non-scaling-stroke" x1="38.89%" y1="67.5%" x2="25.93%" y2="85%" stroke="white" stroke-width="1px"></line><line vector-effect="non-scaling-stroke" x1="51.85%" y1="50%" x2="51.85%" y2="50%" stroke="white" stroke-width="1px"></line><line vector-effect="non-scaling-stroke" x1="38.89%" y1="50%" x2="25.93%" y2="50%" stroke="white" stroke-width="1px"></line><line vector-effect="non-scaling-stroke" x1="57.41%" y1="25%" x2="62.96%" y2="0%" stroke="white" stroke-width="1px"></line><line vector-effect="non-scaling-stroke" x1="57.41%" y1="75%" x2="62.96%" y2="100%" stroke="white" stroke-width="1px"></line><line vector-effect="non-scaling-stroke" x1="75.93%" y1="50%" x2="100%" y2="50%" stroke="white" stroke-width="1px"></line></svg>
